<svg width="36" height="36" viewBox="0 0 36 36" fill="none" xmlns="http://www.w3.org/2000/svg">
<path d="M19.6801 6.8627L25.3565 3.0036L27.875 4.13665L27.5394 10.6262L19.6801 6.8627ZM14.8458 22.1938L26.0414 11.9025L18.1536 8.11473L14.8458 22.1938ZM33.6988 6.75677L29.638 4.92987L29.2999 11.4693L36 14.6777L33.6988 6.75677ZM28.5304 12.9043L17.4199 22.2987L27.4646 18.0544C29.2981 22.2771 28.26 27.3921 23.7938 30.6928C16.2895 36.2387 4.69412 32.5364 2.97226 24.0445C1.75286 18.0303 6.12839 12.7812 12.0628 11.2759L13.7673 20.3855L16.1359 7.09766L10.3168 4.18239L11.4764 8.89342C4.17187 10.6661 -1.24562 17.0937 0.249209 24.466C2.34345 34.7943 16.4463 39.2973 25.5735 32.5519C31.004 28.5386 32.2704 22.3184 30.0427 17.1832L34.395 15.7126L28.5304 12.9043ZM23.5841 2.20627L18.6801 0L11.3369 2.86737L17.9521 6.0352L23.5841 2.20627Z" fill="#965A00"/>
</svg>
